<svg xmlns="http://www.w3.org/2000/svg" xmlns:xlink="http://www.w3.org/1999/xlink" aria-hidden="true" role="img" class="iconify iconify--logos" width="35.93" height="32" preserveAspectRatio="xMidYMid meet" viewBox="0 0 256 228"><path fill="#61DAFB" d="M210.483 73.824a171.23 171.23 0 0 0-8.24-2.597c.465-1.9.893-3.777 1.273-5.621c6.238-30.281 2.16-54.676-11.769-68.7c-13.646-13.355-36.583-10.927-59.953 5.953c-1.784 1.338-3.501 2.73-5.132 4.171c-1.697-1.395-3.439-2.736-5.23-4.035c-23.55-17.512-46.816-20.587-60.755-5.802c-13.585 13.26-17.15 37.164-11.257 66.98c.425 2.358.88 4.662 1.357 6.917c-2.801.784-5.44 1.595-7.924 2.431c-24.581 7.797-38.047 20.են-40.74 35.231c-2.843 15.545 5.922 32.456 31.426 42.396c2.765 1.232 5.649 2.305 8.627 3.212c-.41 2.053-.795 4.05-1.115 5.999c-5.995 37.635-2.559 62.006 11.586 75.31c13.991 13.595 36.953 10.449 60.531-5.985c1.852-1.396 3.627-2.882 5.312-4.429c1.612 1.487 3.293 2.926 5.031 4.29c24.04 17.301 46.899 20.557 60.747 5.811c13.996-13.989 17.559-38.089 11.322-67.615c-.478-2.457-.959-4.873-1.448-7.249c2.977-.817 5.851-1.702 8.597-2.645c25.578-8.03 39.36-21.773 41.257-37.28c1.992-15.534-5.529-32.465-31.174-42.393Z"></path><circle cx="141.07" cy="114.07" r="10.91" fill="#61DAFB"></circle></svg>
